<svg width="44" height="48" viewBox="0 0 44 48" fill="none" xmlns="http://www.w3.org/2000/svg">
<path d="M43.9722 34.9176V17.8586C43.972 17.617 43.9083 17.3797 43.7876 17.1706C43.6669 16.9614 43.4934 16.7878 43.2845 16.6671C43.0757 16.5464 42.8388 16.4828 42.5977 16.4829C42.3566 16.483 42.1198 16.5466 41.911 16.6674L24.7341 26.6067V46.2617C24.7344 46.5033 24.798 46.7406 24.9188 46.9497C25.0395 47.1589 25.213 47.3325 25.4218 47.4532C25.6307 47.5739 25.8675 47.6374 26.1086 47.6374C26.3497 47.6373 26.5866 47.5737 26.7954 47.4529L41.7633 38.7873C42.4368 38.392 42.9952 37.8267 43.3827 37.1477C43.7703 36.4688 43.9736 35.6999 43.9722 34.9176Z" fill="#FFD633"/>
<path d="M39.3652 11.7784L21.9856 21.8348L4.60607 11.7784C4.39703 11.6575 4.22342 11.4837 4.10271 11.2743C3.98201 11.0648 3.91846 10.8273 3.91846 10.5854C3.91846 10.3436 3.98201 10.106 4.10271 9.8966C4.22342 9.68719 4.39703 9.51333 4.60607 9.3925L19.8419 0.575514C20.4937 0.198409 21.233 -0.00012207 21.9856 -0.00012207C22.7382 -0.00012207 23.4775 0.198409 24.1293 0.575514L39.3652 9.3925C39.5742 9.51333 39.7478 9.68719 39.8685 9.8966C39.9892 10.106 40.0528 10.3436 40.0528 10.5854C40.0528 10.8273 39.9892 11.0648 39.8685 11.2743C39.7478 11.4837 39.5742 11.6575 39.3652 11.7784Z" fill="#006AFF"/>
<path d="M1.05256e-05 17.8586V34.9176C-0.00168313 35.6995 0.201042 36.4682 0.587999 37.1472C0.974956 37.8261 1.53264 38.3916 2.20552 38.7873L17.1769 47.4529C17.3857 47.5737 17.6225 47.6373 17.8636 47.6374C18.1047 47.6374 18.3416 47.5739 18.5504 47.4532C18.7593 47.3325 18.9328 47.1589 19.0535 46.9497C19.1742 46.7406 19.2379 46.5033 19.2381 46.2617V26.6067L2.06123 16.6674C1.85244 16.5466 1.61561 16.483 1.37451 16.4829C1.13342 16.4828 0.896551 16.5464 0.687696 16.6671C0.47884 16.7878 0.305348 16.9614 0.18464 17.1706C0.0639327 17.3797 0.000257671 17.617 1.05256e-05 17.8586Z" fill="#FF6666"/>
</svg>
