<svg width="236" height="50" viewBox="0 0 236 50" fill="none" xmlns="http://www.w3.org/2000/svg">
<path d="M43.9722 34.9176V17.8586C43.972 17.617 43.9083 17.3797 43.7876 17.1706C43.6669 16.9614 43.4934 16.7878 43.2845 16.6671C43.0757 16.5464 42.8388 16.4828 42.5977 16.4829C42.3566 16.483 42.1198 16.5466 41.911 16.6674L24.7341 26.6067V46.2617C24.7344 46.5033 24.798 46.7406 24.9188 46.9497C25.0395 47.1589 25.213 47.3325 25.4218 47.4532C25.6307 47.5739 25.8675 47.6374 26.1086 47.6374C26.3497 47.6373 26.5866 47.5737 26.7954 47.4529L41.7633 38.7873C42.4368 38.392 42.9952 37.8267 43.3827 37.1477C43.7703 36.4688 43.9736 35.6999 43.9722 34.9176Z" fill="#FFD633"/>
<path d="M39.3652 11.7784L21.9856 21.8348L4.60607 11.7784C4.39703 11.6575 4.22342 11.4837 4.10271 11.2743C3.98201 11.0648 3.91846 10.8273 3.91846 10.5854C3.91846 10.3436 3.98201 10.106 4.10271 9.8966C4.22342 9.68719 4.39703 9.51333 4.60607 9.3925L19.8419 0.575514C20.4937 0.198409 21.233 -0.00012207 21.9856 -0.00012207C22.7382 -0.00012207 23.4775 0.198409 24.1293 0.575514L39.3652 9.3925C39.5742 9.51333 39.7478 9.68719 39.8685 9.8966C39.9892 10.106 40.0528 10.3436 40.0528 10.5854C40.0528 10.8273 39.9892 11.0648 39.8685 11.2743C39.7478 11.4837 39.5742 11.6575 39.3652 11.7784Z" fill="#006AFF"/>
<path d="M1.05256e-05 17.8586V34.9176C-0.00168313 35.6995 0.201042 36.4682 0.587999 37.1472C0.974956 37.8261 1.53264 38.3916 2.20552 38.7873L17.1769 47.4529C17.3857 47.5737 17.6225 47.6373 17.8636 47.6374C18.1047 47.6374 18.3416 47.5739 18.5504 47.4532C18.7593 47.3325 18.9328 47.1589 19.0535 46.9497C19.1742 46.7406 19.2379 46.5033 19.2381 46.2617V26.6067L2.06123 16.6674C1.85244 16.5466 1.61561 16.483 1.37451 16.4829C1.13342 16.4828 0.896551 16.5464 0.687696 16.6671C0.47884 16.7878 0.305348 16.9614 0.18464 17.1706C0.0639327 17.3797 0.000257671 17.617 1.05256e-05 17.8586Z" fill="#FF6666"/>
<path d="M58.0053 41.2475V10.5434L64.0718 10.0482V40.7523L58.0053 41.2475ZM67.4604 40.9999L73.9809 10.4196L82.6061 10.0482L89.2916 40.7523L82.6886 40.9999L81.5743 34.3556H74.1872L72.8666 40.9999H67.4604ZM75.3015 29.4033H80.4601L77.6125 14.5878L75.3015 29.4033Z" fill="#006AFF"/>
<path d="M111.077 27.4224H108.725V40.7523L102.7 41.2475V10.2958L110.046 10.0482C113.595 10.0482 116.374 10.7635 118.382 12.1942C120.39 13.5973 121.395 15.7571 121.395 18.6734C121.395 20.5993 121.009 22.1813 120.239 23.4193C119.496 24.6574 118.41 25.6891 116.979 26.5145L119.744 33.2413L122.55 39.9269L116.607 41.5364L111.077 27.4224ZM110.789 22.9654C112.219 22.9654 113.333 22.6765 114.131 22.0987C114.957 21.4934 115.369 20.3654 115.369 18.7147C115.369 16.156 114.104 14.8767 111.573 14.8767H108.725V22.9654H110.789ZM133.05 41.5364C130.299 41.5364 128.194 40.4496 126.736 38.2761C125.278 36.0751 124.549 33.1588 124.549 29.5271C124.549 25.8404 125.292 22.9103 126.777 20.7368C128.263 18.5634 130.423 17.4766 133.257 17.4766C135.953 17.4766 138.016 18.5634 139.447 20.7368C140.878 22.9103 141.593 25.8404 141.593 29.5271C141.593 29.7472 141.552 29.9123 141.469 30.0224C141.386 30.1049 141.345 30.1599 141.345 30.1874H130.326C130.326 31.9757 130.56 33.6127 131.028 35.0984C131.496 36.5566 132.211 37.2857 133.174 37.2857C134.247 37.2857 135.045 36.6666 135.568 35.4286C136.09 34.1905 136.365 33.544 136.393 33.4889L140.767 35.1397C140.19 37.1206 139.268 38.6888 138.002 39.8443C136.737 40.9724 135.086 41.5364 133.05 41.5364ZM135.898 26.8446C135.898 25.1939 135.678 23.887 135.237 22.9241C134.797 21.9612 134.109 21.4797 133.174 21.4797C132.706 21.4797 132.252 21.7135 131.812 22.1813C131.372 22.649 131.014 23.2955 130.739 24.1209C130.464 24.9463 130.326 25.8542 130.326 26.8446H135.898ZM152.269 41.5364C150.508 41.5364 148.995 40.9861 147.73 39.8856C146.492 38.7851 145.556 37.3269 144.923 35.5111C144.291 33.6953 143.974 31.7281 143.974 29.6097C143.974 27.5187 144.277 25.5516 144.882 23.7082C145.515 21.8649 146.464 20.3654 147.73 19.2099C148.995 18.0544 150.55 17.4766 152.393 17.4766C153.796 17.4766 155.048 17.8343 156.149 18.5496C157.277 19.2374 158.157 20.2141 158.79 21.4797C159.423 22.7453 159.766 24.1897 159.821 25.8129L154.333 26.0605C154.333 25.9505 154.278 25.5103 154.168 24.7399C154.085 23.9696 153.879 23.3368 153.549 22.8416C153.246 22.3463 152.847 22.0987 152.352 22.0987C151.251 22.0987 150.55 22.8553 150.247 24.3685C149.944 25.8542 149.793 27.5325 149.793 29.4033C149.793 31.2467 149.944 32.9249 150.247 34.4381C150.577 35.9238 151.334 36.6666 152.517 36.6666C154.003 36.6666 154.773 35.2085 154.828 32.2921L159.698 32.8286C159.34 35.6899 158.625 37.8634 157.552 39.3491C156.479 40.8073 154.718 41.5364 152.269 41.5364ZM163.466 18.2607L169.244 17.7655V21.521C170.069 20.3379 171.087 19.3887 172.298 18.6734C173.536 17.9306 175.104 17.5591 177.002 17.5591V23.213C176.012 23.213 174.705 23.3918 173.082 23.7495C171.486 24.0796 170.207 24.6712 169.244 25.524V40.7523L163.466 41.2475V18.2607ZM185.144 41.5364C183.631 41.5364 182.393 41.0136 181.43 39.9682C180.467 38.8952 179.986 37.4645 179.986 35.6762V18.2607L185.763 17.7655V33.3239C185.763 34.4244 185.942 35.2222 186.3 35.7175C186.658 36.1852 187.208 36.419 187.951 36.419C188.528 36.419 189.148 36.2815 189.808 36.0063C190.468 35.7037 191.06 35.236 191.582 34.6032V18.2607L197.401 17.7655V40.7523L191.582 41.2475V38.2761C190.619 39.3766 189.56 40.202 188.405 40.7523C187.277 41.275 186.19 41.5364 185.144 41.5364ZM210.321 41.4538C208.45 41.4538 206.868 40.9861 205.575 40.0507C204.282 39.0878 203.635 37.3957 203.635 34.9746V22.14H200.417L200.664 17.7655H203.801L204.378 12.7307L209.413 12.0291V17.7655H214.2L213.953 22.14H209.454V34.9334C209.454 35.7587 209.661 36.3502 210.073 36.7079C210.486 37.0656 211.091 37.2444 211.889 37.2444C212.329 37.2444 213.072 37.1619 214.118 36.9968V40.9999C214.008 41.0274 213.568 41.1099 212.797 41.2475C212.054 41.3851 211.229 41.4538 210.321 41.4538ZM221.065 41.5364C220.075 41.5364 219.181 41.2337 218.383 40.6285C217.585 39.9957 216.966 39.1565 216.526 38.1111C216.086 37.0381 215.866 35.8413 215.866 34.5207C215.866 31.5218 216.884 29.4171 218.919 28.2065C220.983 26.9685 223.377 26.2669 226.1 26.1018C226.1 24.6161 226.004 23.5156 225.811 22.8003C225.619 22.085 225.151 21.7273 224.408 21.7273C223.775 21.7273 223.294 21.9749 222.964 22.4701C222.634 22.9654 222.427 23.5982 222.345 24.3685L216.691 23.3781C216.966 21.2596 217.833 19.7464 219.291 18.8385C220.749 17.9306 222.455 17.4766 224.408 17.4766C226.912 17.4766 228.783 18.1369 230.021 19.4575C231.286 20.7781 231.919 22.4977 231.919 24.6161V36.6254C231.919 37.9185 232.126 39.2941 232.538 40.7523L226.884 41.2475L226.224 38.3999C225.729 39.2803 225 40.0232 224.037 40.6285C223.074 41.2337 222.083 41.5364 221.065 41.5364ZM223.748 37.4095C224.216 37.4095 224.601 37.2994 224.903 37.0793C225.234 36.8592 225.633 36.5016 226.1 36.0063V29.5684C224.725 29.5684 223.624 29.9398 222.799 30.6827C221.973 31.4255 221.561 32.581 221.561 34.1492C221.561 35.1947 221.74 36.0063 222.097 36.5841C222.482 37.1344 223.033 37.4095 223.748 37.4095Z" fill="black"/>
</svg>
